<svg width="16" height="12" viewBox="0 0 16 12" fill="none" xmlns="http://www.w3.org/2000/svg">
<path d="M15.1886 0.0378418H0.811015C0.675451 0.0380007 0.545487 0.0919377 0.449647 0.187815C0.353807 0.283693 0.299921 0.413677 0.299815 0.549242V1.57804C0.299815 1.62544 0.351215 1.67984 0.393215 1.70184L7.95042 6.01844C7.96977 6.0295 7.99172 6.03523 8.01402 6.03504C8.0368 6.0351 8.05919 6.02903 8.07882 6.01744L15.4076 1.70604C15.4488 1.68304 15.558 1.62224 15.599 1.59424C15.6486 1.56044 15.6998 1.52984 15.6998 1.46924V0.549042C15.6997 0.413512 15.6457 0.283579 15.5499 0.187745C15.4541 0.0919103 15.3241 0.0380006 15.1886 0.0378418Z" fill="#333333"/>
<path d="M15.6362 3.12923C15.6166 3.11801 15.5943 3.11217 15.5716 3.11231C15.549 3.11245 15.5268 3.11856 15.5072 3.13003L11.3598 5.57023C11.3433 5.57986 11.3292 5.59308 11.3185 5.60893C11.3077 5.62477 11.3007 5.64282 11.2979 5.66175C11.2952 5.68067 11.2967 5.69998 11.3024 5.71824C11.3081 5.7365 11.3178 5.75324 11.3308 5.76722L15.4788 10.2386C15.4907 10.2515 15.5052 10.2618 15.5212 10.2689C15.5373 10.2759 15.5547 10.2795 15.5722 10.2794C15.6061 10.2794 15.6386 10.2659 15.6626 10.2419C15.6865 10.218 15.7 10.1855 15.7 10.1516V3.24023C15.7001 3.21774 15.6943 3.19564 15.6831 3.17615C15.6719 3.15665 15.6557 3.14047 15.6362 3.12923Z" fill="#333333"/>
<path d="M10.1646 6.38969C10.1449 6.36824 10.1185 6.3542 10.0897 6.34991C10.0609 6.34561 10.0315 6.35132 10.0064 6.36609L8.34399 7.34428C8.24659 7.40056 8.13623 7.43054 8.02375 7.43128C7.91126 7.43201 7.80052 7.40348 7.70239 7.34848L6.23939 6.51268C6.21577 6.49923 6.18848 6.49365 6.16148 6.49674C6.13447 6.49983 6.10916 6.51144 6.08919 6.52988L0.533589 11.6831C0.519025 11.6967 0.507842 11.7135 0.500933 11.7322C0.494024 11.7509 0.491579 11.771 0.493794 11.7908C0.496008 11.8106 0.502821 11.8296 0.513688 11.8464C0.524556 11.8631 0.539178 11.877 0.556389 11.8871C0.642789 11.9379 0.726189 11.9621 0.810989 11.9621H15.0416C15.0665 11.9621 15.0909 11.9549 15.1117 11.9412C15.1325 11.9275 15.1488 11.908 15.1586 11.8851C15.1686 11.8623 15.1717 11.8371 15.1675 11.8126C15.1633 11.7881 15.152 11.7654 15.135 11.7473L10.1646 6.38969Z" fill="#333333"/>
<path d="M4.86661 5.92027C4.88132 5.90666 4.89263 5.88979 4.89962 5.87101C4.90661 5.85223 4.90909 5.83207 4.90685 5.81215C4.90461 5.79224 4.89772 5.77313 4.88673 5.75637C4.87575 5.73961 4.86097 5.72567 4.84361 5.71567L0.490407 3.22927C0.470979 3.21824 0.448996 3.2125 0.426656 3.21263C0.404316 3.21277 0.382402 3.21876 0.363105 3.23002C0.343809 3.24128 0.327806 3.2574 0.316698 3.27679C0.30559 3.29617 0.299765 3.31813 0.299807 3.34047V9.86447C0.299666 9.88938 0.306834 9.9138 0.320425 9.93468C0.334016 9.95556 0.353433 9.972 0.376272 9.98197C0.399111 9.99193 0.424369 9.99497 0.448922 9.99072C0.473474 9.98648 0.496241 9.97512 0.514407 9.95807L4.86661 5.92027Z" fill="#333333"/>
</svg>
